<?xml version="1.0" encoding="UTF-8" standalone="no" ?>
<!DOCTYPE svg PUBLIC "-//W3C//DTD SVG 1.1//EN" "http://www.w3.org/Graphics/SVG/1.1/DTD/svg11.dtd">
<svg xmlns="http://www.w3.org/2000/svg" xmlns:xlink="http://www.w3.org/1999/xlink" version="1.1" width="640" height="480" viewBox="0 0 640 480" xml:space="preserve">
<desc>Created with Fabric.js 3.6.6</desc>
<defs>
</defs>
<g transform="matrix(1 0 0 1 239.2 255.7)"  >
<path style="stroke: rgb(23,133,155); stroke-width: 50; stroke-dasharray: none; stroke-linecap: round; stroke-dashoffset: 0; stroke-linejoin: round; stroke-miterlimit: 10; fill: none; fill-rule: nonzero; opacity: 1;"  transform=" translate(-239.2, -255.7)" d="M 112.14998168945313 121.19999694824219 Q 112.19998168945312 121.19999694824219 112.69998168945312 121.19999694824219 Q 113.19998168945312 121.19999694824219 113.69998168945312 121.19999694824219 Q 114.19998168945312 121.19999694824219 114.69998168945312 121.69999694824219 Q 115.19998168945312 122.19999694824219 115.69998168945312 122.19999694824219 Q 116.19998168945312 122.19999694824219 117.19998168945312 122.69999694824219 Q 118.19998168945312 123.19999694824219 119.19998168945312 123.69999694824219 Q 120.19998168945312 124.19999694824219 122.19998168945312 125.19999694824219 Q 124.19998168945312 126.19999694824219 126.69998168945312 126.19999694824219 Q 129.19998168945312 126.19999694824219 132.19998168945312 126.69999694824219 Q 135.19998168945312 127.19999694824219 138.19998168945312 128.1999969482422 Q 141.19998168945312 129.1999969482422 144.69998168945312 129.6999969482422 Q 148.19998168945312 130.1999969482422 152.19998168945312 130.6999969482422 Q 156.19998168945312 131.1999969482422 160.19998168945312 132.1999969482422 Q 164.19998168945312 133.1999969482422 167.69998168945312 133.6999969482422 Q 171.19998168945312 134.1999969482422 174.19998168945312 134.1999969482422 Q 177.19998168945312 134.1999969482422 181.19998168945312 134.1999969482422 Q 185.19998168945312 134.1999969482422 188.19998168945312 134.1999969482422 Q 191.19998168945312 134.1999969482422 194.19998168945312 134.1999969482422 Q 197.19998168945312 134.1999969482422 200.19998168945312 134.1999969482422 Q 203.19998168945312 134.1999969482422 205.69998168945312 134.1999969482422 Q 208.19998168945312 134.1999969482422 210.19998168945312 134.1999969482422 Q 212.19998168945312 134.1999969482422 214.19998168945312 134.1999969482422 Q 216.19998168945312 134.1999969482422 219.19998168945312 134.1999969482422 Q 222.19998168945312 134.1999969482422 224.19998168945312 134.1999969482422 Q 226.19998168945312 134.1999969482422 228.19998168945312 134.1999969482422 Q 230.19998168945312 134.1999969482422 231.69998168945312 134.1999969482422 Q 233.19998168945312 134.1999969482422 235.19998168945312 134.1999969482422 Q 237.19998168945312 134.1999969482422 239.19998168945312 134.1999969482422 Q 241.19998168945312 134.1999969482422 244.19998168945312 134.1999969482422 Q 247.19998168945312 134.1999969482422 249.19998168945312 134.1999969482422 Q 251.19998168945312 134.1999969482422 255.19998168945312 134.1999969482422 Q 259.1999816894531 134.1999969482422 269.1999816894531 134.1999969482422 Q 279.1999816894531 134.1999969482422 285.1999816894531 134.1999969482422 Q 291.1999816894531 134.1999969482422 298.6999816894531 134.1999969482422 Q 306.1999816894531 134.1999969482422 313.6999816894531 134.1999969482422 Q 321.1999816894531 134.1999969482422 329.1999816894531 134.1999969482422 Q 337.1999816894531 134.1999969482422 346.6999816894531 134.1999969482422 Q 356.1999816894531 134.1999969482422 365.6999816894531 134.1999969482422 Q 375.1999816894531 134.1999969482422 386.1999816894531 134.1999969482422 Q 397.1999816894531 134.1999969482422 409.6999816894531 134.1999969482422 Q 422.1999816894531 134.1999969482422 435.6999816894531 134.1999969482422 Q 449.1999816894531 134.1999969482422 462.6999816894531 134.1999969482422 Q 476.1999816894531 134.1999969482422 491.6999816894531 132.6999969482422 Q 507.1999816894531 131.1999969482422 521.6999816894531 128.1999969482422 Q 536.1999816894531 125.19999694824219 550.6999816894531 122.69999694824219 Q 565.1999816894531 120.19999694824219 577.1999816894531 117.69999694824219 Q 589.1999816894531 115.19999694824219 599.6999816894531 113.19999694824219 Q 610.1999816894531 111.19999694824219 618.6999816894531 108.69999694824219 Q 627.1999816894531 106.19999694824219 632.6999816894531 104.19999694824219 Q 638.1999816894531 102.19999694824219 640.6999816894531 101.19999694824219 Q 643.1999816894531 100.19999694824219 645.1999816894531 99.69999694824219 Q 647.1999816894531 99.19999694824219 647.6999816894531 98.69999694824219 Q 648.1999816894531 98.19999694824219 647.6999816894531 98.19999694824219 Q 647.1999816894531 98.19999694824219 643.1999816894531 98.19999694824219 Q 639.1999816894531 98.19999694824219 632.1999816894531 98.19999694824219 Q 625.1999816894531 98.19999694824219 613.1999816894531 98.19999694824219 Q 601.1999816894531 98.19999694824219 578.1999816894531 98.19999694824219 Q 555.1999816894531 98.19999694824219 522.6999816894531 98.19999694824219 Q 490.1999816894531 98.19999694824219 452.6999816894531 98.19999694824219 Q 415.1999816894531 98.19999694824219 375.6999816894531 98.19999694824219 Q 336.1999816894531 98.19999694824219 294.1999816894531 98.19999694824219 Q 252.19998168945312 98.19999694824219 210.69998168945312 98.19999694824219 Q 169.19998168945312 98.19999694824219 127.19998168945312 98.19999694824219 Q 85.19998168945312 98.19999694824219 47.699981689453125 98.19999694824219 Q 10.199981689453125 98.19999694824219 -21.300018310546875 98.19999694824219 Q -52.800018310546875 98.19999694824219 -76.80001831054688 98.19999694824219 Q -100.80001831054688 98.19999694824219 -118.80001831054688 98.19999694824219 Q -136.80001831054688 98.19999694824219 -146.30001831054688 98.19999694824219 Q -155.80001831054688 98.19999694824219 -159.30001831054688 98.19999694824219 Q -162.80001831054688 98.19999694824219 -163.80001831054688 98.19999694824219 Q -164.80001831054688 98.19999694824219 -165.30001831054688 98.19999694824219 Q -165.80001831054688 98.19999694824219 -163.30001831054688 98.19999694824219 Q -160.80001831054688 98.19999694824219 -152.80001831054688 98.19999694824219 Q -144.80001831054688 98.19999694824219 -124.80001831054688 98.19999694824219 Q -104.80001831054688 98.19999694824219 -72.30001831054688 98.19999694824219 Q -39.800018310546875 98.19999694824219 -3.300018310546875 98.19999694824219 Q 33.199981689453125 98.19999694824219 76.19998168945312 98.19999694824219 Q 119.19998168945312 98.19999694824219 169.19998168945312 98.19999694824219 Q 219.19998168945312 98.19999694824219 269.1999816894531 98.19999694824219 Q 319.1999816894531 98.19999694824219 365.1999816894531 98.19999694824219 Q 411.1999816894531 98.19999694824219 450.1999816894531 98.19999694824219 Q 489.1999816894531 98.19999694824219 520.1999816894531 98.19999694824219 Q 551.1999816894531 98.19999694824219 573.1999816894531 98.19999694824219 Q 595.1999816894531 98.19999694824219 604.6999816894531 98.19999694824219 Q 614.1999816894531 98.19999694824219 618.1999816894531 98.19999694824219 Q 622.1999816894531 98.19999694824219 623.6999816894531 98.19999694824219 Q 625.1999816894531 98.19999694824219 624.1999816894531 98.19999694824219 Q 623.1999816894531 98.19999694824219 617.1999816894531 98.19999694824219 Q 611.1999816894531 98.19999694824219 597.1999816894531 98.19999694824219 Q 583.1999816894531 98.19999694824219 557.1999816894531 98.19999694824219 Q 531.1999816894531 98.19999694824219 496.1999816894531 98.19999694824219 Q 461.1999816894531 98.19999694824219 416.6999816894531 98.19999694824219 Q 372.1999816894531 98.19999694824219 319.6999816894531 98.19999694824219 Q 267.1999816894531 98.19999694824219 211.69998168945312 98.19999694824219 Q 156.19998168945312 98.19999694824219 98.19998168945312 98.19999694824219 Q 40.199981689453125 98.19999694824219 -14.800018310546875 98.19999694824219 Q -69.80001831054688 98.19999694824219 -118.30001831054688 98.19999694824219 Q -166.80001831054688 98.19999694824219 -205.80001831054688 98.19999694824219 Q -244.80001831054688 98.19999694824219 -289.8000183105469 98.19999694824219 Q -334.8000183105469 98.19999694824219 -340.8000183105469 98.19999694824219 Q -346.8000183105469 98.19999694824219 -348.8000183105469 98.19999694824219 Q -350.8000183105469 98.19999694824219 -348.3000183105469 98.19999694824219 Q -345.8000183105469 98.19999694824219 -337.3000183105469 98.19999694824219 Q -328.8000183105469 98.19999694824219 -302.8000183105469 98.19999694824219 Q -276.8000183105469 98.19999694824219 -234.80001831054688 98.19999694824219 Q -192.80001831054688 98.19999694824219 -140.30001831054688 98.19999694824219 Q -87.80001831054688 98.19999694824219 -23.300018310546875 98.19999694824219 Q 41.199981689453125 98.19999694824219 112.69998168945312 98.19999694824219 Q 184.19998168945312 98.19999694824219 253.19998168945312 98.19999694824219 Q 322.1999816894531 98.19999694824219 385.1999816894531 98.19999694824219 Q 448.1999816894531 98.19999694824219 499.6999816894531 98.19999694824219 Q 551.1999816894531 98.19999694824219 587.1999816894531 98.19999694824219 Q 623.1999816894531 98.19999694824219 643.6999816894531 98.19999694824219 Q 664.1999816894531 98.19999694824219 671.6999816894531 98.19999694824219 Q 679.1999816894531 98.19999694824219 681.6999816894531 98.19999694824219 Q 684.1999816894531 98.19999694824219 684.6999816894531 98.19999694824219 Q 685.1999816894531 98.19999694824219 684.1999816894531 98.19999694824219 Q 683.1999816894531 98.19999694824219 677.6999816894531 98.19999694824219 Q 672.1999816894531 98.19999694824219 657.1999816894531 98.19999694824219 Q 642.1999816894531 98.19999694824219 610.6999816894531 98.19999694824219 Q 579.1999816894531 98.19999694824219 535.1999816894531 98.19999694824219 Q 491.1999816894531 98.19999694824219 437.1999816894531 98.19999694824219 Q 383.1999816894531 98.19999694824219 269.6999816894531 98.19999694824219 Q 156.19998168945312 98.19999694824219 98.19998168945312 98.19999694824219 Q 40.199981689453125 98.19999694824219 -9.300018310546875 98.19999694824219 Q -58.800018310546875 98.19999694824219 -97.80001831054688 98.19999694824219 Q -136.80001831054688 98.19999694824219 -161.30001831054688 98.19999694824219 Q -185.80001831054688 98.19999694824219 -194.30001831054688 98.19999694824219 Q -202.80001831054688 98.19999694824219 -205.30001831054688 98.19999694824219 Q -207.80001831054688 98.19999694824219 -208.30001831054688 98.19999694824219 Q -208.80001831054688 98.19999694824219 -207.30001831054688 98.19999694824219 Q -205.80001831054688 98.19999694824219 -196.30001831054688 96.19999694824219 Q -186.80001831054688 94.19999694824219 -163.30001831054688 91.19999694824219 Q -139.80001831054688 88.19999694824219 -104.30001831054688 85.19999694824219 Q -68.80001831054688 82.19999694824219 -22.300018310546875 77.69999694824219 Q 24.199981689453125 73.19999694824219 77.69998168945312 68.69999694824219 Q 131.19998168945312 64.19999694824219 186.69998168945312 58.69999694824219 Q 242.19998168945312 53.19999694824219 297.6999816894531 49.69999694824219 Q 353.1999816894531 46.19999694824219 403.6999816894531 41.69999694824219 Q 454.1999816894531 37.19999694824219 492.6999816894531 31.699996948242188 Q 531.1999816894531 26.199996948242188 557.1999816894531 22.199996948242188 Q 583.1999816894531 18.199996948242188 595.1999816894531 16.699996948242188 Q 607.1999816894531 15.199996948242188 611.1999816894531 14.699996948242188 Q 615.1999816894531 14.199996948242188 616.1999816894531 13.699996948242188 Q 617.1999816894531 13.199996948242188 614.1999816894531 13.199996948242188 Q 611.1999816894531 13.199996948242188 600.1999816894531 13.199996948242188 Q 589.1999816894531 13.199996948242188 563.6999816894531 13.199996948242188 Q 538.1999816894531 13.199996948242188 501.6999816894531 13.199996948242188 Q 465.1999816894531 13.199996948242188 418.1999816894531 13.199996948242188 Q 371.1999816894531 13.199996948242188 317.1999816894531 13.199996948242188 Q 263.1999816894531 13.199996948242188 206.19998168945312 13.199996948242188 Q 149.19998168945312 13.199996948242188 94.19998168945312 13.199996948242188 Q 39.199981689453125 13.199996948242188 -9.300018310546875 13.199996948242188 Q -57.800018310546875 13.199996948242188 -97.30001831054688 13.199996948242188 Q -136.80001831054688 13.199996948242188 -163.80001831054688 13.199996948242188 Q -190.80001831054688 13.199996948242188 -204.80001831054688 13.699996948242188 Q -218.80001831054688 14.199996948242188 -221.80001831054688 14.199996948242188 Q -224.80001831054688 14.199996948242188 -226.30001831054688 14.199996948242188 Q -227.80001831054688 14.199996948242188 -224.30001831054688 14.199996948242188 Q -220.80001831054688 14.199996948242188 -211.80001831054688 14.199996948242188 Q -202.80001831054688 14.199996948242188 -179.80001831054688 14.199996948242188 Q -156.80001831054688 14.199996948242188 -124.30001831054688 14.199996948242188 Q -91.80001831054688 14.199996948242188 -47.300018310546875 14.199996948242188 Q -2.800018310546875 14.199996948242188 48.199981689453125 14.199996948242188 Q 99.19998168945312 14.199996948242188 148.19998168945312 14.199996948242188 Q 197.19998168945312 14.199996948242188 241.69998168945312 14.199996948242188 Q 286.1999816894531 14.199996948242188 323.6999816894531 14.199996948242188 Q 361.1999816894531 14.199996948242188 388.1999816894531 14.199996948242188 Q 415.1999816894531 14.199996948242188 430.1999816894531 14.199996948242188 Q 445.1999816894531 14.199996948242188 450.6999816894531 14.199996948242188 Q 456.1999816894531 14.199996948242188 457.6999816894531 14.199996948242188 Q 459.1999816894531 14.199996948242188 459.6999816894531 14.699996948242188 Q 460.1999816894531 15.199996948242188 459.1999816894531 15.199996948242188 Q 458.1999816894531 15.199996948242188 452.1999816894531 16.199996948242188 Q 446.1999816894531 17.199996948242188 434.1999816894531 17.199996948242188 Q 422.1999816894531 17.199996948242188 394.6999816894531 17.199996948242188 Q 367.1999816894531 17.199996948242188 328.6999816894531 17.199996948242188 Q 290.1999816894531 17.199996948242188 241.19998168945312 17.199996948242188 Q 192.19998168945312 17.199996948242188 138.19998168945312 17.199996948242188 Q 84.19998168945312 17.199996948242188 31.699981689453125 17.199996948242188 Q -20.800018310546875 17.199996948242188 -67.80001831054688 17.199996948242188 Q -114.80001831054688 17.199996948242188 -153.80001831054688 18.199996948242188 Q -192.80001831054688 19.199996948242188 -220.80001831054688 22.199996948242188 Q -248.80001831054688 25.199996948242188 -262.8000183105469 26.699996948242188 Q -276.8000183105469 28.199996948242188 -280.8000183105469 29.199996948242188 Q -284.8000183105469 30.199996948242188 -281.8000183105469 30.699996948242188 Q -278.8000183105469 31.199996948242188 -269.8000183105469 31.199996948242188 Q -260.8000183105469 31.199996948242188 -236.80001831054688 31.199996948242188 Q -212.80001831054688 31.199996948242188 -177.30001831054688 31.199996948242188 Q -141.80001831054688 31.199996948242188 -94.80001831054688 31.199996948242188 Q -47.800018310546875 31.199996948242188 4.699981689453125 31.199996948242188 Q 57.199981689453125 31.199996948242188 114.19998168945312 31.199996948242188 Q 171.19998168945312 31.199996948242188 226.19998168945312 31.199996948242188 Q 281.1999816894531 31.199996948242188 329.6999816894531 31.199996948242188 Q 378.1999816894531 31.199996948242188 417.1999816894531 31.199996948242188 Q 456.1999816894531 31.199996948242188 482.1999816894531 31.199996948242188 Q 508.1999816894531 31.199996948242188 520.1999816894531 31.199996948242188 Q 532.1999816894531 31.199996948242188 536.1999816894531 31.199996948242188 Q 540.1999816894531 31.199996948242188 540.6999816894531 31.199996948242188 Q 541.1999816894531 31.199996948242188 540.6999816894531 31.199996948242188 Q 540.1999816894531 31.199996948242188 535.1999816894531 32.19999694824219 Q 530.1999816894531 33.19999694824219 516.6999816894531 33.19999694824219 Q 503.1999816894531 33.19999694824219 473.1999816894531 33.19999694824219 Q 443.1999816894531 33.19999694824219 397.6999816894531 33.19999694824219 Q 352.1999816894531 33.19999694824219 301.1999816894531 33.19999694824219 Q 250.19998168945312 33.19999694824219 192.19998168945312 33.19999694824219 Q 134.19998168945312 33.19999694824219 74.69998168945312 33.19999694824219 Q 15.199981689453125 33.19999694824219 -44.300018310546875 33.19999694824219 Q -103.80001831054688 33.19999694824219 -158.80001831054688 33.19999694824219 Q -213.80001831054688 33.19999694824219 -261.3000183105469 33.19999694824219 Q -308.8000183105469 33.19999694824219 -342.8000183105469 35.19999694824219 Q -376.8000183105469 37.19999694824219 -394.8000183105469 39.69999694824219 Q -412.8000183105469 42.19999694824219 -418.3000183105469 42.69999694824219 Q -423.8000183105469 43.19999694824219 -424.3000183105469 44.19999694824219 Q -424.8000183105469 45.19999694824219 -422.3000183105469 45.69999694824219 Q -419.8000183105469 46.19999694824219 -411.8000183105469 46.19999694824219 Q -403.8000183105469 46.19999694824219 -379.3000183105469 46.19999694824219 Q -354.8000183105469 46.19999694824219 -317.3000183105469 46.19999694824219 Q -279.8000183105469 46.19999694824219 -171.80001831054688 46.19999694824219 Q -63.800018310546875 46.19999694824219 6.199981689453125 46.19999694824219 Q 76.19998168945312 46.19999694824219 146.19998168945312 46.19999694824219 Q 216.19998168945312 46.19999694824219 279.6999816894531 46.19999694824219 Q 343.1999816894531 46.19999694824219 402.6999816894531 46.19999694824219 Q 462.1999816894531 46.19999694824219 510.6999816894531 46.19999694824219 Q 559.1999816894531 46.19999694824219 595.1999816894531 46.19999694824219 Q 631.1999816894531 46.19999694824219 650.6999816894531 46.19999694824219 Q 670.1999816894531 46.19999694824219 676.1999816894531 46.19999694824219 Q 682.1999816894531 46.19999694824219 684.1999816894531 46.19999694824219 Q 686.1999816894531 46.19999694824219 682.6999816894531 46.19999694824219 Q 679.1999816894531 46.19999694824219 668.6999816894531 46.19999694824219 Q 658.1999816894531 46.19999694824219 631.1999816894531 46.19999694824219 Q 604.1999816894531 46.19999694824219 563.6999816894531 46.19999694824219 Q 523.1999816894531 46.19999694824219 471.6999816894531 46.19999694824219 Q 420.1999816894531 46.19999694824219 366.6999816894531 46.19999694824219 Q 313.1999816894531 46.19999694824219 256.1999816894531 46.19999694824219 Q 199.19998168945312 46.19999694824219 141.19998168945312 46.19999694824219 Q 83.19998168945312 46.19999694824219 32.199981689453125 46.19999694824219 Q -18.800018310546875 46.19999694824219 -60.800018310546875 47.69999694824219 Q -102.80001831054688 49.19999694824219 -125.80001831054688 50.69999694824219 Q -148.80001831054688 52.19999694824219 -157.80001831054688 53.19999694824219 Q -166.80001831054688 54.19999694824219 -167.80001831054688 54.19999694824219 Q -168.80001831054688 54.19999694824219 -166.30001831054688 54.69999694824219 Q -163.80001831054688 55.19999694824219 -153.80001831054688 55.19999694824219 Q -143.80001831054688 55.19999694824219 -116.30001831054688 55.19999694824219 Q -88.80001831054688 55.19999694824219 -48.800018310546875 55.19999694824219 Q -8.800018310546875 55.19999694824219 41.199981689453125 55.19999694824219 Q 91.19998168945312 55.19999694824219 146.69998168945312 55.19999694824219 Q 202.19998168945312 55.19999694824219 258.6999816894531 55.19999694824219 Q 315.1999816894531 55.19999694824219 373.1999816894531 55.19999694824219 Q 431.1999816894531 55.19999694824219 487.6999816894531 55.19999694824219 Q 544.1999816894531 55.19999694824219 594.1999816894531 55.19999694824219 Q 644.1999816894531 55.19999694824219 680.6999816894531 55.19999694824219 Q 717.1999816894531 55.19999694824219 737.6999816894531 55.19999694824219 Q 758.1999816894531 55.19999694824219 764.6999816894531 55.69999694824219 Q 771.1999816894531 56.19999694824219 772.6999816894531 56.69999694824219 Q 774.1999816894531 57.19999694824219 774.1999816894531 57.69999694824219 Q 774.1999816894531 58.19999694824219 768.6999816894531 59.19999694824219 Q 763.1999816894531 60.19999694824219 747.1999816894531 63.19999694824219 Q 731.1999816894531 66.19999694824219 698.1999816894531 68.19999694824219 Q 665.1999816894531 70.19999694824219 618.1999816894531 71.69999694824219 Q 571.1999816894531 73.19999694824219 508.6999816894531 74.19999694824219 Q 446.1999816894531 75.19999694824219 376.1999816894531 75.19999694824219 Q 306.1999816894531 75.19999694824219 232.19998168945312 75.19999694824219 Q 158.19998168945312 75.19999694824219 81.19998168945312 75.19999694824219 Q 4.199981689453125 75.19999694824219 -64.30001831054688 75.19999694824219 Q -132.80001831054688 75.19999694824219 -234.30001831054688 76.19999694824219 Q -335.8000183105469 77.19999694824219 -356.3000183105469 79.19999694824219 Q -376.8000183105469 81.19999694824219 -382.3000183105469 81.69999694824219 Q -387.8000183105469 82.19999694824219 -381.3000183105469 82.19999694824219 Q -374.8000183105469 82.19999694824219 -357.8000183105469 82.19999694824219 Q -340.8000183105469 82.19999694824219 -306.8000183105469 82.19999694824219 Q -272.8000183105469 82.19999694824219 -225.80001831054688 82.19999694824219 Q -178.80001831054688 82.19999694824219 -123.80001831054688 82.19999694824219 Q -68.80001831054688 82.19999694824219 -4.300018310546875 82.19999694824219 Q 60.199981689453125 82.19999694824219 129.19998168945312 82.19999694824219 Q 198.19998168945312 82.19999694824219 261.6999816894531 82.19999694824219 Q 325.1999816894531 82.19999694824219 384.1999816894531 82.19999694824219 Q 443.1999816894531 82.19999694824219 491.6999816894531 82.19999694824219 Q 540.1999816894531 82.19999694824219 575.6999816894531 82.19999694824219 Q 611.1999816894531 82.19999694824219 628.6999816894531 82.19999694824219 Q 646.1999816894531 82.19999694824219 652.6999816894531 82.69999694824219 Q 659.1999816894531 83.19999694824219 660.1999816894531 83.19999694824219 Q 661.1999816894531 83.19999694824219 659.1999816894531 84.69999694824219 Q 657.1999816894531 86.19999694824219 647.1999816894531 88.19999694824219 Q 637.1999816894531 90.19999694824219 613.1999816894531 95.19999694824219 Q 589.1999816894531 100.19999694824219 550.1999816894531 103.19999694824219 Q 511.1999816894531 106.19999694824219 452.6999816894531 107.69999694824219 Q 394.1999816894531 109.19999694824219 322.6999816894531 110.19999694824219 Q 251.19998168945312 111.19999694824219 167.69998168945312 111.19999694824219 Q 84.19998168945312 111.19999694824219 -7.300018310546875 111.19999694824219 Q -98.80001831054688 111.19999694824219 -275.8000183105469 111.19999694824219 Q -452.8000183105469 111.19999694824219 -452.8000183105469 112.69999694824219 Q -452.8000183105469 114.19999694824219 -452.8000183105469 117.19999694824219 Q -452.8000183105469 120.19999694824219 -452.8000183105469 123.19999694824219 Q -452.8000183105469 126.19999694824219 -452.8000183105469 127.19999694824219 Q -452.8000183105469 128.1999969482422 -452.8000183105469 128.6999969482422 Q -452.8000183105469 129.1999969482422 -443.3000183105469 129.6999969482422 Q -433.8000183105469 130.1999969482422 -411.3000183105469 130.1999969482422 Q -388.8000183105469 130.1999969482422 -345.3000183105469 130.1999969482422 Q -301.8000183105469 130.1999969482422 -245.30001831054688 130.1999969482422 Q -188.80001831054688 130.1999969482422 -119.80001831054688 130.1999969482422 Q -50.800018310546875 130.1999969482422 21.699981689453125 130.1999969482422 Q 94.19998168945312 130.1999969482422 170.69998168945312 130.1999969482422 Q 247.19998168945312 130.1999969482422 315.1999816894531 130.1999969482422 Q 383.1999816894531 130.1999969482422 443.1999816894531 130.1999969482422 Q 503.1999816894531 130.1999969482422 552.1999816894531 130.1999969482422 Q 601.1999816894531 130.1999969482422 634.6999816894531 130.1999969482422 Q 668.1999816894531 130.1999969482422 687.6999816894531 131.6999969482422 Q 707.1999816894531 133.1999969482422 713.1999816894531 133.6999969482422 Q 719.1999816894531 134.1999969482422 720.6999816894531 135.1999969482422 Q 722.1999816894531 136.1999969482422 719.6999816894531 136.6999969482422 Q 717.1999816894531 137.1999969482422 707.6999816894531 138.1999969482422 Q 698.1999816894531 139.1999969482422 636.6999816894531 143.1999969482422 Q 575.1999816894531 147.1999969482422 525.1999816894531 148.1999969482422 Q 475.1999816894531 149.1999969482422 413.1999816894531 149.1999969482422 Q 351.1999816894531 149.1999969482422 279.6999816894531 149.1999969482422 Q 208.19998168945312 149.1999969482422 142.19998168945312 149.1999969482422 Q 76.19998168945312 149.1999969482422 14.199981689453125 149.1999969482422 Q -47.800018310546875 149.1999969482422 -98.80001831054688 149.1999969482422 Q -149.80001831054688 149.1999969482422 -187.30001831054688 149.1999969482422 Q -224.80001831054688 149.1999969482422 -245.80001831054688 150.1999969482422 Q -266.8000183105469 151.1999969482422 -271.8000183105469 151.6999969482422 Q -276.8000183105469 152.1999969482422 -272.3000183105469 152.1999969482422 Q -267.8000183105469 152.1999969482422 -252.30001831054688 152.1999969482422 Q -236.80001831054688 152.1999969482422 -206.30001831054688 152.1999969482422 Q -175.80001831054688 152.1999969482422 -130.80001831054688 152.1999969482422 Q -85.80001831054688 152.1999969482422 -30.800018310546875 152.1999969482422 Q 24.199981689453125 152.1999969482422 91.69998168945312 152.1999969482422 Q 159.19998168945312 152.1999969482422 229.19998168945312 152.1999969482422 Q 299.1999816894531 152.1999969482422 362.6999816894531 152.1999969482422 Q 426.1999816894531 152.1999969482422 483.6999816894531 152.1999969482422 Q 541.1999816894531 152.1999969482422 588.6999816894531 152.1999969482422 Q 636.1999816894531 152.1999969482422 667.1999816894531 152.1999969482422 Q 698.1999816894531 152.1999969482422 713.1999816894531 153.1999969482422 Q 728.1999816894531 154.1999969482422 732.6999816894531 154.1999969482422 Q 737.1999816894531 154.1999969482422 734.1999816894531 156.1999969482422 Q 731.1999816894531 158.1999969482422 717.1999816894531 159.1999969482422 Q 703.1999816894531 160.1999969482422 676.1999816894531 161.1999969482422 Q 649.1999816894531 162.1999969482422 606.1999816894531 163.6999969482422 Q 563.1999816894531 165.1999969482422 505.1999816894531 165.1999969482422 Q 447.1999816894531 165.1999969482422 378.1999816894531 165.1999969482422 Q 309.1999816894531 165.1999969482422 226.19998168945312 165.1999969482422 Q 143.19998168945312 165.1999969482422 56.699981689453125 165.1999969482422 Q -29.800018310546875 165.1999969482422 -113.30001831054688 165.1999969482422 Q -196.80001831054688 165.1999969482422 -266.8000183105469 165.1999969482422 Q -336.8000183105469 165.1999969482422 -393.3000183105469 165.1999969482422 Q -449.8000183105469 165.1999969482422 -451.3000183105469 165.6999969482422 Q -452.8000183105469 166.1999969482422 -452.8000183105469 168.1999969482422 Q -452.8000183105469 170.1999969482422 -452.8000183105469 170.6999969482422 Q -452.8000183105469 171.1999969482422 -444.3000183105469 171.1999969482422 Q -435.8000183105469 171.1999969482422 -408.3000183105469 171.1999969482422 Q -380.8000183105469 171.1999969482422 -337.8000183105469 171.1999969482422 Q -294.8000183105469 171.1999969482422 -236.80001831054688 171.1999969482422 Q -178.80001831054688 171.1999969482422 -108.80001831054688 171.1999969482422 Q -38.800018310546875 171.1999969482422 35.199981689453125 171.1999969482422 Q 109.19998168945312 171.1999969482422 187.19998168945312 171.1999969482422 Q 265.1999816894531 171.1999969482422 340.6999816894531 171.1999969482422 Q 416.1999816894531 171.1999969482422 483.6999816894531 171.1999969482422 Q 551.1999816894531 171.1999969482422 610.1999816894531 171.1999969482422 Q 669.1999816894531 171.1999969482422 716.1999816894531 171.1999969482422 Q 763.1999816894531 171.1999969482422 793.1999816894531 171.1999969482422 Q 823.1999816894531 171.1999969482422 835.6999816894531 172.1999969482422 Q 848.1999816894531 173.1999969482422 851.1999816894531 173.6999969482422 Q 854.1999816894531 174.1999969482422 853.1999816894531 175.1999969482422 Q 852.1999816894531 176.1999969482422 845.6999816894531 177.6999969482422 Q 839.1999816894531 179.1999969482422 822.6999816894531 182.6999969482422 Q 806.1999816894531 186.1999969482422 770.1999816894531 192.1999969482422 Q 734.1999816894531 198.1999969482422 685.1999816894531 201.1999969482422 Q 636.1999816894531 204.1999969482422 572.6999816894531 205.1999969482422 Q 509.1999816894531 206.1999969482422 434.1999816894531 207.6999969482422 Q 359.1999816894531 209.1999969482422 275.1999816894531 209.1999969482422 Q 191.19998168945312 209.1999969482422 106.69998168945312 209.1999969482422 Q 22.199981689453125 209.1999969482422 -57.300018310546875 209.1999969482422 Q -136.80001831054688 209.1999969482422 -206.80001831054688 210.1999969482422 Q -276.8000183105469 211.1999969482422 -330.8000183105469 213.1999969482422 Q -384.8000183105469 215.1999969482422 -418.8000183105469 218.6999969482422 Q -452.8000183105469 222.1999969482422 -452.8000183105469 223.6999969482422 Q -452.8000183105469 225.1999969482422 -452.8000183105469 225.6999969482422 Q -452.8000183105469 226.1999969482422 -450.8000183105469 226.6999969482422 Q -448.8000183105469 227.1999969482422 -438.8000183105469 227.1999969482422 Q -428.8000183105469 227.1999969482422 -401.8000183105469 227.1999969482422 Q -374.8000183105469 227.1999969482422 -331.8000183105469 227.1999969482422 Q -288.8000183105469 227.1999969482422 -229.30001831054688 227.1999969482422 Q -169.80001831054688 227.1999969482422 -24.300018310546875 227.1999969482422 Q 121.19998168945312 227.1999969482422 197.69998168945312 227.1999969482422 Q 274.1999816894531 227.1999969482422 350.6999816894531 227.1999969482422 Q 427.1999816894531 227.1999969482422 495.1999816894531 227.1999969482422 Q 563.1999816894531 227.1999969482422 619.1999816894531 227.1999969482422 Q 675.1999816894531 227.1999969482422 719.1999816894531 228.1999969482422 Q 763.1999816894531 229.1999969482422 786.6999816894531 231.6999969482422 Q 810.1999816894531 234.1999969482422 817.1999816894531 235.1999969482422 Q 824.1999816894531 236.1999969482422 825.6999816894531 237.1999969482422 Q 827.1999816894531 238.1999969482422 825.1999816894531 238.6999969482422 Q 823.1999816894531 239.1999969482422 813.6999816894531 241.1999969482422 Q 804.1999816894531 243.1999969482422 779.6999816894531 246.1999969482422 Q 755.1999816894531 249.1999969482422 717.1999816894531 250.1999969482422 Q 679.1999816894531 251.1999969482422 626.1999816894531 252.6999969482422 Q 573.1999816894531 254.1999969482422 507.1999816894531 254.1999969482422 Q 441.1999816894531 254.1999969482422 364.1999816894531 254.1999969482422 Q 287.1999816894531 254.1999969482422 202.69998168945312 254.1999969482422 Q 118.19998168945312 254.1999969482422 36.199981689453125 254.1999969482422 Q -45.800018310546875 254.1999969482422 -119.80001831054688 254.1999969482422 Q -193.80001831054688 254.1999969482422 -255.80001831054688 254.1999969482422 Q -317.8000183105469 254.1999969482422 -361.3000183105469 254.1999969482422 Q -404.8000183105469 254.1999969482422 -428.8000183105469 255.6999969482422 Q -452.8000183105469 257.1999969482422 -452.8000183105469 257.6999969482422 Q -452.8000183105469 258.1999969482422 -445.3000183105469 258.1999969482422 Q -437.8000183105469 258.1999969482422 -413.3000183105469 258.1999969482422 Q -388.8000183105469 258.1999969482422 -346.8000183105469 258.1999969482422 Q -304.8000183105469 258.1999969482422 -249.80001831054688 258.1999969482422 Q -194.80001831054688 258.1999969482422 -127.80001831054688 258.1999969482422 Q -60.800018310546875 258.1999969482422 12.199981689453125 258.1999969482422 Q 85.19998168945312 258.1999969482422 162.19998168945312 258.1999969482422 Q 239.19998168945312 258.1999969482422 311.6999816894531 258.1999969482422 Q 384.1999816894531 258.1999969482422 448.6999816894531 258.1999969482422 Q 513.1999816894531 258.1999969482422 567.1999816894531 258.1999969482422 Q 621.1999816894531 258.1999969482422 660.1999816894531 258.1999969482422 Q 699.1999816894531 258.1999969482422 725.1999816894531 259.1999969482422 Q 751.1999816894531 260.1999969482422 758.6999816894531 261.1999969482422 Q 766.1999816894531 262.1999969482422 768.6999816894531 262.1999969482422 Q 771.1999816894531 262.1999969482422 769.1999816894531 263.1999969482422 Q 767.1999816894531 264.1999969482422 757.1999816894531 266.6999969482422 Q 747.1999816894531 269.1999969482422 723.1999816894531 271.6999969482422 Q 699.1999816894531 274.1999969482422 656.1999816894531 276.6999969482422 Q 613.1999816894531 279.1999969482422 555.1999816894531 280.6999969482422 Q 497.1999816894531 282.1999969482422 429.6999816894531 282.1999969482422 Q 362.1999816894531 282.1999969482422 278.6999816894531 282.1999969482422 Q 195.19998168945312 282.1999969482422 105.19998168945312 282.1999969482422 Q 15.199981689453125 282.1999969482422 -69.80001831054688 282.1999969482422 Q -154.80001831054688 282.1999969482422 -232.80001831054688 282.1999969482422 Q -310.8000183105469 282.1999969482422 -381.8000183105469 284.1999969482422 Q -452.8000183105469 286.1999969482422 -452.8000183105469 288.1999969482422 Q -452.8000183105469 290.1999969482422 -452.8000183105469 290.6999969482422 Q -452.8000183105469 291.1999969482422 -445.3000183105469 291.1999969482422 Q -437.8000183105469 291.1999969482422 -409.3000183105469 291.1999969482422 Q -380.8000183105469 291.1999969482422 -335.3000183105469 291.1999969482422 Q -289.8000183105469 291.1999969482422 -229.30001831054688 291.1999969482422 Q -168.80001831054688 291.1999969482422 -94.80001831054688 291.1999969482422 Q -20.800018310546875 291.1999969482422 63.199981689453125 291.1999969482422 Q 147.19998168945312 291.1999969482422 235.69998168945312 291.1999969482422 Q 324.1999816894531 291.1999969482422 409.1999816894531 291.1999969482422 Q 494.1999816894531 291.1999969482422 566.6999816894531 291.1999969482422 Q 639.1999816894531 291.1999969482422 698.6999816894531 291.1999969482422 Q 758.1999816894531 291.1999969482422 802.6999816894531 293.6999969482422 Q 847.1999816894531 296.1999969482422 870.6999816894531 297.6999969482422 Q 894.1999816894531 299.1999969482422 902.1999816894531 300.6999969482422 Q 910.1999816894531 302.1999969482422 910.6999816894531 302.6999969482422 Q 911.1999816894531 303.1999969482422 908.6999816894531 304.6999969482422 Q 906.1999816894531 306.1999969482422 893.6999816894531 309.1999969482422 Q 881.1999816894531 312.1999969482422 851.1999816894531 314.1999969482422 Q 821.1999816894531 316.1999969482422 775.1999816894531 317.1999969482422 Q 729.1999816894531 318.1999969482422 668.1999816894531 319.1999969482422 Q 607.1999816894531 320.1999969482422 534.6999816894531 320.1999969482422 Q 462.1999816894531 320.1999969482422 377.1999816894531 320.1999969482422 Q 292.1999816894531 320.1999969482422 113.19998168945312 320.1999969482422 Q -65.80001831054688 320.1999969482422 -141.30001831054688 320.1999969482422 Q -216.80001831054688 320.1999969482422 -278.8000183105469 320.1999969482422 Q -340.8000183105469 320.1999969482422 -383.8000183105469 321.1999969482422 Q -426.8000183105469 322.1999969482422 -439.8000183105469 324.1999969482422 Q -452.8000183105469 326.1999969482422 -452.8000183105469 326.6999969482422 Q -452.8000183105469 327.1999969482422 -450.8000183105469 327.6999969482422 Q -448.8000183105469 328.1999969482422 -435.3000183105469 328.1999969482422 Q -421.8000183105469 328.1999969482422 -389.3000183105469 328.1999969482422 Q -356.8000183105469 328.1999969482422 -306.8000183105469 328.1999969482422 Q -256.8000183105469 328.1999969482422 -192.30001831054688 328.1999969482422 Q -127.80001831054688 328.1999969482422 -51.300018310546875 328.1999969482422 Q 25.199981689453125 328.1999969482422 112.69998168945312 328.1999969482422 Q 200.19998168945312 328.1999969482422 289.1999816894531 328.1999969482422 Q 378.1999816894531 328.1999969482422 460.6999816894531 328.1999969482422 Q 543.1999816894531 328.1999969482422 613.1999816894531 328.1999969482422 Q 683.1999816894531 328.1999969482422 738.1999816894531 328.1999969482422 Q 793.1999816894531 328.1999969482422 835.1999816894531 330.1999969482422 Q 877.1999816894531 332.1999969482422 896.6999816894531 335.1999969482422 Q 916.1999816894531 338.1999969482422 921.6999816894531 339.6999969482422 Q 927.1999816894531 341.1999969482422 927.1999816894531 342.1999969482422 Q 927.1999816894531 343.1999969482422 921.1999816894531 345.1999969482422 Q 915.1999816894531 347.1999969482422 893.1999816894531 348.6999969482422 Q 871.1999816894531 350.1999969482422 833.1999816894531 351.6999969482422 Q 795.1999816894531 353.1999969482422 671.1999816894531 354.1999969482422 Q 547.1999816894531 355.1999969482422 463.6999816894531 355.1999969482422 Q 380.1999816894531 355.1999969482422 290.1999816894531 355.1999969482422 Q 200.19998168945312 355.1999969482422 107.19998168945312 355.1999969482422 Q 14.199981689453125 355.1999969482422 -74.80001831054688 355.1999969482422 Q -163.80001831054688 355.1999969482422 -238.80001831054688 355.1999969482422 Q -313.8000183105469 355.1999969482422 -371.8000183105469 355.1999969482422 Q -429.8000183105469 355.1999969482422 -441.3000183105469 357.1999969482422 Q -452.8000183105469 359.1999969482422 -452.8000183105469 360.6999969482422 Q -452.8000183105469 362.1999969482422 -452.8000183105469 362.6999969482422 Q -452.8000183105469 363.1999969482422 -448.8000183105469 363.1999969482422 Q -444.8000183105469 363.1999969482422 -425.8000183105469 363.1999969482422 Q -406.8000183105469 363.1999969482422 -365.8000183105469 363.1999969482422 Q -324.8000183105469 363.1999969482422 -266.8000183105469 363.1999969482422 Q -208.80001831054688 363.1999969482422 -140.80001831054688 363.1999969482422 Q -72.80001831054688 363.1999969482422 9.699981689453125 363.1999969482422 Q 92.19998168945312 363.1999969482422 182.19998168945312 363.1999969482422 Q 272.1999816894531 363.1999969482422 354.1999816894531 363.1999969482422 Q 436.1999816894531 363.1999969482422 509.1999816894531 363.1999969482422 Q 582.1999816894531 363.1999969482422 642.6999816894531 363.1999969482422 Q 703.1999816894531 363.1999969482422 752.1999816894531 364.6999969482422 Q 801.1999816894531 366.1999969482422 830.1999816894531 368.6999969482422 Q 859.1999816894531 371.1999969482422 869.1999816894531 372.1999969482422 Q 879.1999816894531 373.1999969482422 880.6999816894531 373.6999969482422 Q 882.1999816894531 374.1999969482422 866.6999816894531 378.1999969482422 Q 851.1999816894531 382.1999969482422 821.1999816894531 382.6999969482422 Q 791.1999816894531 383.1999969482422 745.1999816894531 384.6999969482422 Q 699.1999816894531 386.1999969482422 639.1999816894531 386.1999969482422 Q 579.1999816894531 386.1999969482422 502.1999816894531 386.1999969482422 Q 425.1999816894531 386.1999969482422 340.1999816894531 386.1999969482422 Q 255.19998168945312 386.1999969482422 163.69998168945312 386.1999969482422 Q 72.19998168945312 386.1999969482422 -22.300018310546875 386.1999969482422 Q -116.80001831054688 386.1999969482422 -199.80001831054688 386.1999969482422 Q -282.8000183105469 386.1999969482422 -352.8000183105469 386.1999969482422 Q -422.8000183105469 386.1999969482422 -437.8000183105469 386.1999969482422 Q -452.8000183105469 386.1999969482422 -452.8000183105469 386.6999969482422 Q -452.8000183105469 387.1999969482422 -452.8000183105469 388.1999969482422 Q -452.8000183105469 389.1999969482422 -451.8000183105469 389.6999969482422 Q -450.8000183105469 390.1999969482422 -440.8000183105469 390.1999969482422 Q -430.8000183105469 390.1999969482422 -398.3000183105469 390.1999969482422 Q -365.8000183105469 390.1999969482422 -315.8000183105469 390.1999969482422 Q -265.8000183105469 390.1999969482422 -199.80001831054688 390.1999969482422 Q -133.80001831054688 390.1999969482422 -55.800018310546875 390.1999969482422 Q 22.199981689453125 390.1999969482422 105.69998168945312 390.1999969482422 Q 189.19998168945312 390.1999969482422 271.1999816894531 390.1999969482422 Q 353.1999816894531 390.1999969482422 424.1999816894531 390.1999969482422 Q 495.1999816894531 390.1999969482422 556.1999816894531 390.1999969482422 Q 617.1999816894531 390.1999969482422 692.1999816894531 392.6999969482422 Q 767.1999816894531 395.1999969482422 778.6999816894531 396.6999969482422 Q 790.1999816894531 398.1999969482422 792.1999816894531 398.6999969482422 Q 794.1999816894531 399.1999969482422 791.6999816894531 400.6999969482422 Q 789.1999816894531 402.1999969482422 777.6999816894531 405.1999969482422 Q 766.1999816894531 408.1999969482422 736.6999816894531 414.1999969482422 Q 707.1999816894531 420.1999969482422 658.1999816894531 424.6999969482422 Q 609.1999816894531 429.1999969482422 537.6999816894531 431.6999969482422 Q 466.1999816894531 434.1999969482422 381.1999816894531 435.1999969482422 Q 296.1999816894531 436.1999969482422 199.19998168945312 437.1999969482422 Q 102.19998168945312 438.1999969482422 5.199981689453125 438.1999969482422 Q -91.80001831054688 438.1999969482422 -190.30001831054688 438.1999969482422 Q -288.8000183105469 438.1999969482422 -370.8000183105469 438.1999969482422 Q -452.8000183105469 438.1999969482422 -452.8000183105469 439.6999969482422 Q -452.8000183105469 441.1999969482422 -452.8000183105469 444.1999969482422 Q -452.8000183105469 447.1999969482422 -452.8000183105469 450.1999969482422 Q -452.8000183105469 453.1999969482422 -452.8000183105469 454.6999969482422 Q -452.8000183105469 456.1999969482422 -451.3000183105469 456.6999969482422 Q -449.8000183105469 457.1999969482422 -436.8000183105469 457.6999969482422 Q -423.8000183105469 458.1999969482422 -392.3000183105469 458.1999969482422 Q -360.8000183105469 458.1999969482422 -309.8000183105469 458.1999969482422 Q -258.8000183105469 458.1999969482422 -189.80001831054688 458.1999969482422 Q -120.80001831054688 458.1999969482422 -40.300018310546875 458.1999969482422 Q 40.199981689453125 458.1999969482422 130.19998168945312 458.1999969482422 Q 220.19998168945312 458.1999969482422 309.1999816894531 458.1999969482422 Q 398.1999816894531 458.1999969482422 548.6999816894531 458.1999969482422 Q 699.1999816894531 458.1999969482422 754.6999816894531 458.1999969482422 Q 810.1999816894531 458.1999969482422 846.6999816894531 458.1999969482422 Q 883.1999816894531 458.1999969482422 902.6999816894531 460.1999969482422 Q 922.1999816894531 462.1999969482422 926.6999816894531 462.1999969482422 Q 931.1999816894531 462.1999969482422 931.1999816894531 463.1999969482422 Q 931.1999816894531 464.1999969482422 925.6999816894531 464.6999969482422 Q 920.1999816894531 465.1999969482422 903.1999816894531 465.1999969482422 Q 886.1999816894531 465.1999969482422 845.6999816894531 465.1999969482422 Q 805.1999816894531 465.1999969482422 750.1999816894531 465.1999969482422 Q 695.1999816894531 465.1999969482422 618.1999816894531 465.1999969482422 Q 541.1999816894531 465.1999969482422 453.6999816894531 465.1999969482422 Q 366.1999816894531 465.1999969482422 276.1999816894531 465.1999969482422 Q 186.19998168945312 465.1999969482422 91.69998168945312 465.1999969482422 Q -2.800018310546875 465.1999969482422 -87.80001831054688 465.1999969482422 Q -172.80001831054688 465.1999969482422 -242.80001831054688 465.1999969482422 Q -312.8000183105469 465.1999969482422 -365.3000183105469 466.1999969482422 Q -417.8000183105469 467.1999969482422 -435.3000183105469 469.1999969482422 Q -452.8000183105469 471.1999969482422 -452.8000183105469 472.6999969482422 Q -452.8000183105469 474.1999969482422 -443.3000183105469 474.6999969482422 Q -433.8000183105469 475.1999969482422 -404.3000183105469 475.1999969482422 Q -374.8000183105469 475.1999969482422 -323.8000183105469 475.1999969482422 Q -272.8000183105469 475.1999969482422 -128.30001831054688 475.1999969482422 Q 16.199981689453125 475.1999969482422 106.19998168945312 475.1999969482422 Q 196.19998168945312 475.1999969482422 281.1999816894531 475.1999969482422 Q 366.1999816894531 475.1999969482422 442.6999816894531 475.1999969482422 Q 519.1999816894531 475.1999969482422 585.1999816894531 475.1999969482422 Q 651.1999816894531 475.1999969482422 702.6999816894531 475.1999969482422 Q 754.1999816894531 475.1999969482422 786.6999816894531 475.1999969482422 Q 819.1999816894531 475.1999969482422 832.6999816894531 475.1999969482422 Q 846.1999816894531 475.1999969482422 848.6999816894531 475.1999969482422 Q 851.1999816894531 475.1999969482422 850.6999816894531 475.1999969482422 Q 850.1999816894531 475.1999969482422 840.6999816894531 475.1999969482422 Q 831.1999816894531 475.1999969482422 799.6999816894531 475.1999969482422 Q 768.1999816894531 475.1999969482422 719.6999816894531 475.1999969482422 Q 671.1999816894531 475.1999969482422 608.1999816894531 475.1999969482422 Q 545.1999816894531 475.1999969482422 464.1999816894531 475.1999969482422 Q 383.1999816894531 475.1999969482422 293.1999816894531 475.1999969482422 Q 203.19998168945312 475.1999969482422 110.19998168945312 475.1999969482422 Q 17.199981689453125 475.1999969482422 -64.80001831054688 475.1999969482422 Q -146.80001831054688 475.1999969482422 -212.80001831054688 475.1999969482422 Q -278.8000183105469 475.1999969482422 -324.8000183105469 475.1999969482422 Q -370.8000183105469 475.1999969482422 -392.8000183105469 476.1999969482422 Q -414.8000183105469 477.1999969482422 -418.8000183105469 477.6999969482422 Q -422.8000183105469 478.1999969482422 -421.8000183105469 478.6999969482422 Q -420.8000183105469 479.1999969482422 -410.8000183105469 479.1999969482422 Q -400.8000183105469 479.1999969482422 -332.8000183105469 479.1999969482422 Q -264.8000183105469 479.1999969482422 -210.80001831054688 479.1999969482422 Q -156.80001831054688 479.1999969482422 -89.80001831054688 479.1999969482422 Q -22.800018310546875 479.1999969482422 48.699981689453125 479.1999969482422 Q 120.19998168945312 479.1999969482422 184.69998168945312 479.1999969482422 Q 249.19998168945312 479.1999969482422 310.1999816894531 479.1999969482422 Q 371.1999816894531 479.1999969482422 422.1999816894531 479.1999969482422 Q 473.1999816894531 479.1999969482422 512.1999816894531 479.1999969482422 Q 551.1999816894531 479.1999969482422 578.6999816894531 480.1999969482422 Q 606.1999816894531 481.1999969482422 618.6999816894531 481.6999969482422 Q 631.1999816894531 482.1999969482422 635.1999816894531 482.6999969482422 Q 639.1999816894531 483.1999969482422 639.6999816894531 483.1999969482422 Q 640.1999816894531 483.1999969482422 637.6999816894531 483.6999969482422 Q 635.1999816894531 484.1999969482422 629.1999816894531 485.1999969482422 Q 623.1999816894531 486.1999969482422 615.1999816894531 486.1999969482422 Q 607.1999816894531 486.1999969482422 593.1999816894531 487.6999969482422 Q 579.1999816894531 489.1999969482422 566.1999816894531 489.6999969482422 Q 553.1999816894531 490.1999969482422 542.1999816894531 491.6999969482422 Q 531.1999816894531 493.1999969482422 521.6999816894531 494.1999969482422 Q 512.1999816894531 495.1999969482422 507.1999816894531 496.1999969482422 Q 502.1999816894531 497.1999969482422 498.6999816894531 497.6999969482422 Q 495.1999816894531 498.1999969482422 494.1999816894531 498.1999969482422 L 493.1499816894531 498.1999969482422" stroke-linecap="round" />
</g>
</svg>